<svg width="48" height="48" viewBox="0 0 48 48" fill="none" xmlns="http://www.w3.org/2000/svg">
<g id="solar:document-text-bold">
<path id="Vector" fill-rule="evenodd" clip-rule="evenodd" d="M8.344 6.344C6 8.686 6 12.458 6 20V28C6 35.542 6 39.314 8.344 41.656C10.686 44 14.458 44 22 44H26C33.542 44 37.314 44 39.656 41.656C42 39.314 42 35.542 42 28V20C42 12.458 42 8.686 39.656 6.344C37.314 4 33.542 4 26 4H22C14.458 4 10.686 4 8.344 6.344ZM14.5 16C14.5 15.6022 14.658 15.2206 14.9393 14.9393C15.2206 14.658 15.6022 14.5 16 14.5H32C32.3978 14.5 32.7794 14.658 33.0607 14.9393C33.342 15.2206 33.5 15.6022 33.5 16C33.5 16.3978 33.342 16.7794 33.0607 17.0607C32.7794 17.342 32.3978 17.5 32 17.5H16C15.6022 17.5 15.2206 17.342 14.9393 17.0607C14.658 16.7794 14.5 16.3978 14.5 16ZM14.5 24C14.5 23.6022 14.658 23.2206 14.9393 22.9393C15.2206 22.658 15.6022 22.5 16 22.5H32C32.3978 22.5 32.7794 22.658 33.0607 22.9393C33.342 23.2206 33.5 23.6022 33.5 24C33.5 24.3978 33.342 24.7794 33.0607 25.0607C32.7794 25.342 32.3978 25.5 32 25.5H16C15.6022 25.5 15.2206 25.342 14.9393 25.0607C14.658 24.7794 14.5 24.3978 14.5 24ZM16 30.5C15.6022 30.5 15.2206 30.658 14.9393 30.9393C14.658 31.2206 14.5 31.6022 14.5 32C14.5 32.3978 14.658 32.7794 14.9393 33.0607C15.2206 33.342 15.6022 33.5 16 33.5H26C26.3978 33.5 26.7794 33.342 27.0607 33.0607C27.342 32.7794 27.5 32.3978 27.5 32C27.5 31.6022 27.342 31.2206 27.0607 30.9393C26.7794 30.658 26.3978 30.5 26 30.5H16Z" fill="#80848E"/>
</g>
</svg>
