<svg width="48" height="48" viewBox="0 0 48 48" fill="none" xmlns="http://www.w3.org/2000/svg">
<g id="tabler:bulb-filled" clip-path="url(#clip0_26_377)">
<g id="Group">
<path id="Vector" d="M7.99998 22C8.50974 22.0006 9.00005 22.1958 9.37072 22.5457C9.74139 22.8956 9.96445 23.3739 9.99433 23.8828C10.0242 24.3917 9.85863 24.8928 9.53145 25.2837C9.20427 25.6746 8.74017 25.9258 8.23398 25.986L7.99998 26H5.99998C5.49022 25.9994 4.99992 25.8042 4.62924 25.4543C4.25857 25.1044 4.03551 24.6261 4.00564 24.1172C3.97576 23.6083 4.14133 23.1072 4.46851 22.7163C4.79569 22.3254 5.25979 22.0742 5.76598 22.014L5.99998 22H7.99998ZM24 4C24.4898 4.00006 24.9627 4.17991 25.3287 4.50543C25.6948 4.83095 25.9287 5.2795 25.986 5.766L26 6V8C25.9994 8.50976 25.8042 9.00006 25.4543 9.37074C25.1043 9.74141 24.6261 9.96447 24.1172 9.99434C23.6083 10.0242 23.1072 9.85865 22.7163 9.53147C22.3254 9.20429 22.0742 8.74019 22.014 8.234L22 8V6C22 5.46957 22.2107 4.96086 22.5858 4.58579C22.9608 4.21071 23.4695 4 24 4ZM42 22C42.5097 22.0006 43 22.1958 43.3707 22.5457C43.7414 22.8956 43.9644 23.3739 43.9943 23.8828C44.0242 24.3917 43.8586 24.8928 43.5315 25.2837C43.2043 25.6746 42.7402 25.9258 42.234 25.986L42 26H40C39.4902 25.9994 38.9999 25.8042 38.6292 25.4543C38.2586 25.1044 38.0355 24.6261 38.0056 24.1172C37.9758 23.6083 38.1413 23.1072 38.4685 22.7163C38.7957 22.3254 39.2598 22.0742 39.766 22.014L40 22H42ZM9.78598 9.786C10.1304 9.44165 10.5886 9.23478 11.0746 9.20422C11.5607 9.17366 12.0412 9.3215 12.426 9.62L12.614 9.786L14.014 11.186C14.3727 11.5459 14.5809 12.0289 14.5964 12.5368C14.6119 13.0447 14.4336 13.5394 14.0975 13.9206C13.7614 14.3017 13.2929 14.5406 12.787 14.5888C12.2812 14.637 11.776 14.4908 11.374 14.18L11.186 14.014L9.78598 12.614C9.41104 12.2389 9.20041 11.7303 9.20041 11.2C9.20041 10.6697 9.41104 10.1611 9.78598 9.786ZM35.386 9.786C35.7459 9.4273 36.2288 9.21905 36.7367 9.20354C37.2446 9.18803 37.7394 9.36643 38.1205 9.7025C38.5017 10.0386 38.7406 10.5071 38.7888 11.0129C38.837 11.5188 38.6908 12.024 38.38 12.426L38.214 12.614L36.814 14.014C36.4541 14.3727 35.9711 14.5809 35.4632 14.5965C34.9553 14.612 34.4606 14.4336 34.0794 14.0975C33.6983 13.7614 33.4594 13.2929 33.4112 12.7871C33.363 12.2812 33.5092 11.776 33.82 11.374L33.986 11.186L35.386 9.786ZM28 36C28.5304 36 29.0391 36.2107 29.4142 36.5858C29.7893 36.9609 30 37.4696 30 38C30 39.5913 29.3678 41.1174 28.2426 42.2426C27.1174 43.3679 25.5913 44 24 44C22.4087 44 20.8826 43.3679 19.7573 42.2426C18.6321 41.1174 18 39.5913 18 38C18 37.5101 18.1799 37.0373 18.5054 36.6713C18.8309 36.3052 19.2795 36.0713 19.766 36.014L20 36H28ZM24 12C26.5186 12 28.9733 12.7924 31.0165 14.2651C33.0597 15.7377 34.5877 17.8159 35.3842 20.2053C36.1806 22.5946 36.2051 25.174 35.4541 27.578C34.7032 29.982 33.2149 32.0888 31.2 33.6C30.9243 33.807 30.5998 33.9393 30.258 33.984L30 34H18C17.5672 34 17.1462 33.8596 16.8 33.6C14.7851 32.0888 13.2968 29.982 12.5458 27.578C11.7949 25.174 11.8193 22.5946 12.6158 20.2053C13.4122 17.8159 14.9403 15.7377 16.9835 14.2651C19.0266 12.7924 21.4814 12 24 12Z" fill="#80848E"/>
</g>
</g>
<defs>
<clipPath id="clip0_26_377">
<rect width="48" height="48" fill="white"/>
</clipPath>
</defs>
</svg>
