<svg width="48" height="48" viewBox="0 0 48 48" fill="none" xmlns="http://www.w3.org/2000/svg">
<g id="ph:link-bold">
<path id="Vector" d="M25.5694 35.1619C25.7791 35.3709 25.9456 35.6193 26.0591 35.8928C26.1727 36.1663 26.2311 36.4595 26.2311 36.7556C26.2311 37.0518 26.1727 37.345 26.0591 37.6185C25.9456 37.892 25.7791 38.1404 25.5694 38.3494L24.4556 39.4631C22.3451 41.5736 19.4828 42.7592 16.4981 42.7592C13.5135 42.7592 10.6511 41.5736 8.54061 39.4631C6.43015 37.3527 5.24451 34.4903 5.24451 31.5056C5.24451 28.521 6.43015 25.6586 8.54061 23.5481L13.0631 19.0275C15.0909 16.9947 17.8192 15.8142 20.6892 15.7277C23.5591 15.6413 26.3535 16.6555 28.5 18.5625C28.7216 18.7595 28.9022 18.9982 29.0316 19.265C29.1609 19.5318 29.2365 19.8214 29.2539 20.1174C29.2713 20.4134 29.2302 20.7099 29.1331 20.9901C29.0359 21.2702 28.8845 21.5284 28.6875 21.75C28.4905 21.9716 28.2518 22.1523 27.985 22.2816C27.7182 22.411 27.4286 22.4865 27.1326 22.5039C26.8366 22.5213 26.5401 22.4803 26.2599 22.3831C25.9798 22.2859 25.7216 22.1345 25.5 21.9375C24.2128 20.7944 22.5376 20.1862 20.8168 20.2375C19.0961 20.2887 17.46 20.9955 16.2431 22.2131L11.7244 26.7281C10.4583 27.9942 9.74701 29.7114 9.74701 31.5019C9.74701 33.2924 10.4583 35.0096 11.7244 36.2756C12.9904 37.5417 14.7076 38.253 16.4981 38.253C18.2886 38.253 20.0058 37.5417 21.2719 36.2756L22.3856 35.1619C22.5946 34.9527 22.8427 34.7867 23.1159 34.6735C23.389 34.5603 23.6818 34.502 23.9775 34.502C24.2732 34.502 24.566 34.5603 24.8391 34.6735C25.1122 34.7867 25.3604 34.9527 25.5694 35.1619ZM39.4594 8.5369C37.3472 6.42968 34.4854 5.24628 31.5019 5.24628C28.5183 5.24628 25.6565 6.42968 23.5444 8.5369L22.4306 9.65065C22.0079 10.0733 21.7705 10.6466 21.7705 11.2444C21.7705 11.8422 22.0079 12.4155 22.4306 12.8381C22.8533 13.2608 23.4266 13.4983 24.0244 13.4983C24.6221 13.4983 25.1954 13.2608 25.6181 12.8381L26.7319 11.7244C27.9979 10.4583 29.7151 9.74704 31.5056 9.74704C33.2961 9.74704 35.0133 10.4583 36.2794 11.7244C37.5454 12.9905 38.2567 14.7076 38.2567 16.4981C38.2567 18.2886 37.5454 20.0058 36.2794 21.2719L31.7587 25.7944C30.5408 27.0116 28.9038 27.7173 27.1826 27.7671C25.4614 27.817 23.7863 27.2072 22.5 26.0625C22.2784 25.8655 22.0201 25.7141 21.74 25.6169C21.4599 25.5198 21.1634 25.4787 20.8674 25.4961C20.5714 25.5135 20.2818 25.5891 20.015 25.7184C19.7482 25.8478 19.5095 26.0284 19.3125 26.25C19.1155 26.4716 18.9641 26.7299 18.8669 27.01C18.7697 27.2901 18.7287 27.5866 18.7461 27.8826C18.7635 28.1786 18.839 28.4682 18.9684 28.735C19.0977 29.0018 19.2784 29.2405 19.5 29.4375C21.645 31.3441 24.4375 32.359 27.3061 32.2743C30.1747 32.1896 32.9025 31.0118 34.9312 28.9819L39.4537 24.4613C41.5634 22.3496 42.7489 19.4871 42.75 16.5021C42.751 13.5172 41.5675 10.6538 39.4594 8.54065V8.5369Z" fill="#80848E"/>
</g>
</svg>
