<svg width="48" height="48" viewBox="0 0 48 48" fill="none" xmlns="http://www.w3.org/2000/svg">
<g id="mdi:book">
<path id="Vector" d="M36 44C37.0609 44 38.0783 43.5786 38.8284 42.8284C39.5786 42.0783 40 41.0609 40 40V8C40 6.93913 39.5786 5.92172 38.8284 5.17157C38.0783 4.42143 37.0609 4 36 4H24V18L19 15L14 18V4H12C10.9391 4 9.92172 4.42143 9.17157 5.17157C8.42143 5.92172 8 6.93913 8 8V40C8 41.0609 8.42143 42.0783 9.17157 42.8284C9.92172 43.5786 10.9391 44 12 44H36Z" fill="#5591AA"/>
</g>
</svg>
