<svg width="48" height="48" viewBox="0 0 48 48" fill="none" xmlns="http://www.w3.org/2000/svg">
<g id="mdi:hands-pray">
<path id="Vector" d="M22.86 19.34C22.94 19.56 23 19.76 23 20V30.44C23 31.44 22.62 32.4 21.94 33.14L16.36 39.24L9.56 32.44L12 30L17.6 5.71997C17.7221 5.18578 18.0367 4.71531 18.4838 4.39849C18.9309 4.08167 19.4791 3.94072 20.0236 4.0026C20.568 4.06447 21.0706 4.32481 21.4352 4.73387C21.7998 5.14293 22.0009 5.67201 22 6.21997V16.14C21.6736 16.0529 21.3378 16.0059 21 16C18.8 16 17 17.8 17 20V26C17 26.56 17.44 27 18 27C18.56 27 19 26.56 19 26V20C19 18.9 19.9 18 21 18C21.38 18 21.7 18.14 22 18.32C22.24 18.46 22.42 18.64 22.6 18.84C22.66 18.92 22.72 19 22.76 19.1C22.8 19.18 22.84 19.26 22.86 19.34ZM4 38L12 44L14.34 41.46L7.44 34.56L4 38ZM36 30L30.4 5.71997C30.2779 5.18578 29.9633 4.71531 29.5162 4.39849C29.0691 4.08167 28.5209 3.94072 27.9764 4.0026C27.432 4.06447 26.9294 4.32481 26.5648 4.73387C26.2002 5.14293 25.9991 5.67201 26 6.21997V16.14C26.32 16.06 26.66 16 27 16C29.2 16 31 17.8 31 20V26C31 26.56 30.56 27 30 27C29.44 27 29 26.56 29 26V20C29 18.9 28.1 18 27 18C26.62 18 26.3 18.14 26 18.32C25.76 18.46 25.58 18.64 25.42 18.84C25.36 18.92 25.28 19 25.24 19.1C25.2 19.18 25.16 19.26 25.14 19.34C25.06 19.56 25 19.76 25 20V30.44C25 31.44 25.38 32.4 26.06 33.14L31.64 39.24L38.44 32.44L36 30ZM40.56 34.56L33.66 41.46L36 44L44 38L40.56 34.56Z" fill="#80848E"/>
</g>
</svg>
