<svg width="16" height="16" viewBox="0 0 16 16" fill="none" xmlns="http://www.w3.org/2000/svg">
<g id="healthicons:calendar">
<g id="Group">
<path id="Vector" fill-rule="evenodd" clip-rule="evenodd" d="M5.00016 7.66666C4.82335 7.66666 4.65378 7.73689 4.52876 7.86192C4.40373 7.98694 4.3335 8.15651 4.3335 8.33332V8.99999C4.3335 9.1768 4.40373 9.34637 4.52876 9.47139C4.65378 9.59642 4.82335 9.66666 5.00016 9.66666H5.66683C5.84364 9.66666 6.01321 9.59642 6.13823 9.47139C6.26326 9.34637 6.3335 9.1768 6.3335 8.99999V8.33332C6.3335 8.15651 6.26326 7.98694 6.13823 7.86192C6.01321 7.73689 5.84364 7.66666 5.66683 7.66666H5.00016ZM5.00016 8.33332V8.99999H5.66683V8.33332H5.00016ZM7.00016 8.33332C7.00016 8.15651 7.0704 7.98694 7.19543 7.86192C7.32045 7.73689 7.49002 7.66666 7.66683 7.66666H8.3335C8.51031 7.66666 8.67988 7.73689 8.8049 7.86192C8.92992 7.98694 9.00016 8.15651 9.00016 8.33332V8.99999C9.00016 9.1768 8.92992 9.34637 8.8049 9.47139C8.67988 9.59642 8.51031 9.66666 8.3335 9.66666H7.66683C7.49002 9.66666 7.32045 9.59642 7.19543 9.47139C7.0704 9.34637 7.00016 9.1768 7.00016 8.99999V8.33332ZM7.66683 8.33332H8.3335V8.99999H7.66683V8.33332ZM10.3335 7.66666C10.1567 7.66666 9.98712 7.73689 9.86209 7.86192C9.73707 7.98694 9.66683 8.15651 9.66683 8.33332V8.99999C9.66683 9.1768 9.73707 9.34637 9.86209 9.47139C9.98712 9.59642 10.1567 9.66666 10.3335 9.66666H11.0002C11.177 9.66666 11.3465 9.59642 11.4716 9.47139C11.5966 9.34637 11.6668 9.1768 11.6668 8.99999V8.33332C11.6668 8.15651 11.5966 7.98694 11.4716 7.86192C11.3465 7.73689 11.177 7.66666 11.0002 7.66666H10.3335ZM10.3335 8.33332V8.99999H11.0002V8.33332H10.3335ZM4.3335 11C4.3335 10.8232 4.40373 10.6536 4.52876 10.5286C4.65378 10.4036 4.82335 10.3333 5.00016 10.3333H5.66683C5.84364 10.3333 6.01321 10.4036 6.13823 10.5286C6.26326 10.6536 6.3335 10.8232 6.3335 11V11.6667C6.3335 11.8435 6.26326 12.013 6.13823 12.1381C6.01321 12.2631 5.84364 12.3333 5.66683 12.3333H5.00016C4.82335 12.3333 4.65378 12.2631 4.52876 12.1381C4.40373 12.013 4.3335 11.8435 4.3335 11.6667V11ZM5.00016 11.6667V11H5.66683V11.6667H5.00016ZM7.66683 10.3333C7.49002 10.3333 7.32045 10.4036 7.19543 10.5286C7.0704 10.6536 7.00016 10.8232 7.00016 11V11.6667C7.00016 11.8435 7.0704 12.013 7.19543 12.1381C7.32045 12.2631 7.49002 12.3333 7.66683 12.3333H8.3335C8.51031 12.3333 8.67988 12.2631 8.8049 12.1381C8.92992 12.013 9.00016 11.8435 9.00016 11.6667V11C9.00016 10.8232 8.92992 10.6536 8.8049 10.5286C8.67988 10.4036 8.51031 10.3333 8.3335 10.3333H7.66683ZM8.3335 11H7.66683V11.6667H8.3335V11ZM9.66683 11C9.66683 10.8232 9.73707 10.6536 9.86209 10.5286C9.98712 10.4036 10.1567 10.3333 10.3335 10.3333H11.0002C11.177 10.3333 11.3465 10.4036 11.4716 10.5286C11.5966 10.6536 11.6668 10.8232 11.6668 11V11.6667C11.6668 11.8435 11.5966 12.013 11.4716 12.1381C11.3465 12.2631 11.177 12.3333 11.0002 12.3333H10.3335C10.1567 12.3333 9.98712 12.2631 9.86209 12.1381C9.73707 12.013 9.66683 11.8435 9.66683 11.6667V11ZM10.3335 11.6667V11H11.0002V11.6667H10.3335Z" fill="#80848E"/>
<path id="Vector_2" fill-rule="evenodd" clip-rule="evenodd" d="M5.3335 2C5.24509 2 5.16031 2.03512 5.09779 2.09763C5.03528 2.16014 5.00016 2.24493 5.00016 2.33333V3.33333H3.66683C3.31321 3.33333 2.97407 3.47381 2.72402 3.72386C2.47397 3.97391 2.3335 4.31304 2.3335 4.66667V12.6667C2.3335 13.0203 2.47397 13.3594 2.72402 13.6095C2.97407 13.8595 3.31321 14 3.66683 14H12.3335C12.6871 14 13.0263 13.8595 13.2763 13.6095C13.5264 13.3594 13.6668 13.0203 13.6668 12.6667V4.66667C13.6668 4.31304 13.5264 3.97391 13.2763 3.72386C13.0263 3.47381 12.6871 3.33333 12.3335 3.33333H11.6668V4.33333C11.6668 4.42174 11.6317 4.50652 11.5692 4.56904C11.5067 4.63155 11.4219 4.66667 11.3335 4.66667C11.2451 4.66667 11.1603 4.63155 11.0978 4.56904C11.0353 4.50652 11.0002 4.42174 11.0002 4.33333V2.33333C11.0002 2.24493 10.965 2.16014 10.9025 2.09763C10.84 2.03512 10.7552 2 10.6668 2C10.5784 2 10.4936 2.03512 10.4311 2.09763C10.3686 2.16014 10.3335 2.24493 10.3335 2.33333V3.33333H6.3335V4.33333C6.3335 4.42174 6.29838 4.50652 6.23587 4.56904C6.17335 4.63155 6.08857 4.66667 6.00016 4.66667C5.91176 4.66667 5.82697 4.63155 5.76446 4.56904C5.70195 4.50652 5.66683 4.42174 5.66683 4.33333V2.33333C5.66683 2.24493 5.63171 2.16014 5.5692 2.09763C5.50669 2.03512 5.4219 2 5.3335 2ZM3.00016 12.6667V7H13.0002V12.6667C13.0002 12.8435 12.9299 13.013 12.8049 13.1381C12.6799 13.2631 12.5103 13.3333 12.3335 13.3333H3.66683C3.49002 13.3333 3.32045 13.2631 3.19543 13.1381C3.0704 13.013 3.00016 12.8435 3.00016 12.6667Z" fill="#80848E"/>
</g>
</g>
</svg>
