<svg width="20" height="20" viewBox="0 0 20 20" fill="none" xmlns="http://www.w3.org/2000/svg">
<g id="Channel icon">
<path id="Vector" fill-rule="evenodd" clip-rule="evenodd" d="M4.90548 17.5C4.64623 17.5 4.44993 17.2657 4.49523 17.0105L5.00002 14.1667H2.1626C1.90375 14.1667 1.70755 13.9332 1.75217 13.6782L1.898 12.8448C1.93289 12.6455 2.10603 12.5 2.30843 12.5H5.29168L6.17502 7.5H3.3376C3.07875 7.5 2.88255 7.26647 2.92717 7.01151L3.073 6.17817C3.10789 5.9788 3.28103 5.83333 3.48343 5.83333H6.46668L6.99732 2.84385C7.03263 2.64493 7.20554 2.5 7.40757 2.5H8.22788C8.48709 2.5 8.68343 2.73422 8.63809 2.98948L8.13335 5.83333H13.1333L13.664 2.84385C13.6993 2.64493 13.8722 2.5 14.0743 2.5H14.8945C15.1538 2.5 15.3501 2.73422 15.3048 2.98948L14.8 5.83333H17.6374C17.8963 5.83333 18.0925 6.06686 18.0478 6.32183L17.902 7.15516C17.8672 7.35453 17.694 7.5 17.4916 7.5H14.5083L13.625 12.5H16.4624C16.7213 12.5 16.9175 12.7335 16.8728 12.9885L16.727 13.8218C16.6922 14.0212 16.519 14.1667 16.3166 14.1667H13.3333L12.8027 17.1562C12.7674 17.3551 12.5945 17.5 12.3924 17.5H11.5722C11.3129 17.5 11.1166 17.2657 11.1619 17.0105L11.6667 14.1667H6.66668L6.13605 17.1562C6.10074 17.3551 5.92782 17.5 5.72579 17.5H4.90548ZM7.84205 7.5L6.95872 12.5H11.9587L12.842 7.5H7.84205Z" fill="#80848E"/>
</g>
</svg>
