<svg width="48" height="48" viewBox="0 0 48 48" fill="none" xmlns="http://www.w3.org/2000/svg">
<g id="Channel icon">
<path id="Vector" fill-rule="evenodd" clip-rule="evenodd" d="M11.7731 42C11.1509 42 10.6798 41.4378 10.7885 40.8252L12 34H5.19022C4.56898 34 4.0981 33.4396 4.20518 32.8276L4.55518 30.8276C4.63892 30.3492 5.05444 30 5.54022 30H12.7L14.82 18H8.01022C7.38898 18 6.9181 17.4395 7.02518 16.8276L7.37518 14.8276C7.45892 14.3491 7.87444 14 8.36022 14H15.52L16.7935 6.82524C16.8783 6.34782 17.2933 6 17.7781 6H19.7469C20.369 6 20.8402 6.56214 20.7314 7.17476L19.52 14H31.52L32.7936 6.82524C32.8782 6.34782 33.2932 6 33.7782 6H35.7468C36.369 6 36.8402 6.56214 36.7314 7.17476L35.52 14H42.3298C42.951 14 43.422 14.5605 43.3148 15.1724L42.9648 17.1724C42.8812 17.6509 42.4656 18 41.9798 18H34.82L32.7 30H39.5098C40.131 30 40.602 30.5604 40.4948 31.1724L40.1448 33.1724C40.0612 33.6508 39.6456 34 39.1598 34H32L30.7264 41.1748C30.6418 41.6522 30.2268 42 29.7418 42H27.7732C27.151 42 26.6798 41.4378 26.7886 40.8252L28 34H16L14.7265 41.1748C14.6418 41.6522 14.2267 42 13.7419 42H11.7731ZM18.8209 18L16.7009 30H28.7008L30.8208 18H18.8209Z" fill="#DBDEE1"/>
</g>
</svg>
