<svg width="16" height="16" viewBox="0 0 16 16" fill="none" xmlns="http://www.w3.org/2000/svg">
<g id="ph:link-bold">
<path id="Vector" d="M8.52324 11.7207C8.59316 11.7903 8.64864 11.8731 8.68649 11.9643C8.72435 12.0555 8.74383 12.1532 8.74383 12.2519C8.74383 12.3506 8.72435 12.4484 8.68649 12.5395C8.64864 12.6307 8.59316 12.7135 8.52324 12.7832L8.15199 13.1544C7.44851 13.8579 6.49437 14.2531 5.49949 14.2531C4.50461 14.2531 3.55048 13.8579 2.84699 13.1544C2.14351 12.4509 1.74829 11.4968 1.74829 10.5019C1.74829 9.50702 2.14351 8.55289 2.84699 7.8494L4.35449 6.34253C5.03042 5.66493 5.93985 5.27142 6.89651 5.2426C7.85316 5.21378 8.78463 5.55184 9.50012 6.18753C9.57399 6.25319 9.6342 6.33276 9.67732 6.42169C9.72043 6.51062 9.74561 6.60717 9.75142 6.70583C9.75722 6.80449 9.74354 6.90333 9.71114 6.99671C9.67875 7.09008 9.62828 7.17616 9.56262 7.25003C9.49696 7.3239 9.41739 7.38411 9.32846 7.42723C9.23953 7.47034 9.14297 7.49552 9.04431 7.50133C8.94565 7.50713 8.84681 7.49345 8.75344 7.46105C8.66006 7.42866 8.57399 7.37819 8.50012 7.31253C8.07107 6.93148 7.51264 6.72876 6.93906 6.74584C6.36549 6.76292 5.82011 6.9985 5.41449 7.4044L3.90824 8.9094C3.48622 9.33143 3.24913 9.90382 3.24913 10.5007C3.24913 11.0975 3.48622 11.6699 3.90824 12.0919C4.33027 12.5139 4.90266 12.751 5.49949 12.751C6.09633 12.751 6.66872 12.5139 7.09074 12.0919L7.46199 11.7207C7.53165 11.6509 7.61436 11.5956 7.70541 11.5579C7.79646 11.5201 7.89406 11.5007 7.99262 11.5007C8.09118 11.5007 8.18877 11.5201 8.27982 11.5579C8.37087 11.5956 8.45359 11.6509 8.52324 11.7207ZM13.1532 2.84565C12.4492 2.14325 11.4953 1.74878 10.5007 1.74878C9.50622 1.74878 8.5523 2.14325 7.84824 2.84565L7.47699 3.2169C7.3361 3.3578 7.25694 3.54889 7.25694 3.74815C7.25694 3.94741 7.3361 4.13851 7.47699 4.2794C7.61789 4.4203 7.80899 4.49945 8.00824 4.49945C8.2075 4.49945 8.3986 4.4203 8.53949 4.2794L8.91074 3.90815C9.33277 3.48613 9.90516 3.24903 10.502 3.24903C11.0988 3.24903 11.6712 3.48613 12.0932 3.90815C12.5153 4.33018 12.7524 4.90257 12.7524 5.4994C12.7524 6.09624 12.5153 6.66863 12.0932 7.09065L10.5864 8.59815C10.1804 9.00388 9.63471 9.23912 9.06099 9.25574C8.48727 9.27235 7.92889 9.06908 7.50012 8.68753C7.42625 8.62187 7.34017 8.5714 7.2468 8.539C7.15342 8.50661 7.05459 8.49292 6.95592 8.49873C6.85726 8.50453 6.76071 8.52971 6.67178 8.57283C6.58285 8.61595 6.50328 8.67616 6.43762 8.75003C6.37196 8.8239 6.32149 8.90997 6.28909 9.00335C6.2567 9.09672 6.24301 9.19556 6.24882 9.29422C6.25462 9.39288 6.2798 9.48944 6.32292 9.57837C6.36604 9.6673 6.42625 9.74687 6.50012 9.81253C7.21511 10.4481 8.14595 10.7863 9.10215 10.7581C10.0584 10.7299 10.9676 10.3373 11.6439 9.66065L13.1514 8.15378C13.8546 7.44989 14.2498 6.49571 14.2501 5.50073C14.2505 4.50575 13.856 3.55129 13.1532 2.8469V2.84565Z" fill="#80848E"/>
</g>
</svg>
