<svg width="56" height="56" viewBox="0 0 56 56" fill="none" xmlns="http://www.w3.org/2000/svg">
<g id="bxs:quote-right">
<path id="Vector" d="M47.3877 41.3187C51.7907 36.54 51.3474 30.4033 51.3334 30.3333V11.6667C51.3334 11.0478 51.0876 10.4543 50.65 10.0168C50.2124 9.57918 49.6189 9.33334 49.0001 9.33334H35.0001C32.4264 9.33334 30.3334 11.4263 30.3334 14V30.3333C30.3334 30.9522 30.5792 31.5457 31.0168 31.9833C31.4544 32.4208 32.0479 32.6667 32.6667 32.6667H39.8487C39.7994 33.8202 39.4548 34.9418 38.8477 35.924C37.6624 37.793 35.4294 39.0693 32.2071 39.7133L30.3334 40.0867V46.6667H32.6667C39.1604 46.6667 44.1141 44.8677 47.3877 41.3187ZM21.7047 41.3187C26.1101 36.54 25.6644 30.4033 25.6504 30.3333V11.6667C25.6504 11.0478 25.4046 10.4543 24.967 10.0168C24.5294 9.57918 23.9359 9.33334 23.3171 9.33334H9.31706C6.74339 9.33334 4.65039 11.4263 4.65039 14V30.3333C4.65039 30.9522 4.89622 31.5457 5.33381 31.9833C5.77139 32.4208 6.36489 32.6667 6.98372 32.6667H14.1657C14.1164 33.8202 13.7718 34.9418 13.1647 35.924C11.9794 37.793 9.74639 39.0693 6.52406 39.7133L4.65039 40.0867V46.6667H6.98372C13.4774 46.6667 18.4311 44.8677 21.7047 41.3187Z" fill="#80848E" fill-opacity="0.1"/>
</g>
</svg>
