<svg width="16" height="16" viewBox="0 0 16 16" fill="none" xmlns="http://www.w3.org/2000/svg">
<g id="bxs:quote-right">
<path id="Vector" d="M13.5393 11.8054C14.7973 10.44 14.6706 8.68669 14.6666 8.66669V3.33335C14.6666 3.15654 14.5964 2.98697 14.4714 2.86195C14.3463 2.73693 14.1768 2.66669 13.9999 2.66669H9.99995C9.26461 2.66669 8.66661 3.26469 8.66661 4.00002V8.66669C8.66661 8.8435 8.73685 9.01307 8.86188 9.13809C8.9869 9.26312 9.15647 9.33335 9.33328 9.33335H11.3853C11.3712 9.66294 11.2727 9.9834 11.0993 10.264C10.7606 10.798 10.1226 11.1627 9.20195 11.3467L8.66661 11.4534V13.3334H9.33328C11.1886 13.3334 12.6039 12.8194 13.5393 11.8054ZM6.20128 11.8054C7.45995 10.44 7.33261 8.68669 7.32861 8.66669V3.33335C7.32861 3.15654 7.25837 2.98697 7.13335 2.86195C7.00833 2.73693 6.83876 2.66669 6.66195 2.66669H2.66195C1.92661 2.66669 1.32861 3.26469 1.32861 4.00002V8.66669C1.32861 8.8435 1.39885 9.01307 1.52388 9.13809C1.6489 9.26312 1.81847 9.33335 1.99528 9.33335H4.04728C4.0332 9.66294 3.93472 9.9834 3.76128 10.264C3.42261 10.798 2.78461 11.1627 1.86395 11.3467L1.32861 11.4534V13.3334H1.99528C3.85061 13.3334 5.26595 12.8194 6.20128 11.8054Z" fill="#80848E"/>
</g>
</svg>
