<svg width="56" height="56" viewBox="0 0 56 56" fill="none" xmlns="http://www.w3.org/2000/svg">
<g clip-path="url(#clip0_67_196)">
<path d="M55.9999 0C50.3365 0.389375 10.5481 4.17812 7.76666 31.4573C7.42869 34.3733 7.23728 37.3023 7.1115 40.2336L26.6754 20.6894C27.359 20.0058 28.4692 20.0058 29.1528 20.6894C29.8363 21.373 29.8363 22.4809 29.1528 23.1645L0.769941 51.5189C-0.255996 52.5437 -0.255996 54.2063 0.769941 55.2311C1.79588 56.2559 3.45947 56.2559 4.4865 55.2311L10.7351 48.9891C15.3387 48.9737 19.939 48.7123 24.512 48.1841C30.3613 47.5891 35.1235 45.2889 39.0129 42H27.9715L44.0267 36.6537C45.2571 35.0252 46.364 33.2948 47.3571 31.5H38.4824L50.1353 25.6802C54.7192 14.5316 55.802 2.87219 55.9999 0Z" fill="#80848E" fill-opacity="0.1"/>
</g>
<defs>
<clipPath id="clip0_67_196">
<rect width="56" height="56" fill="white"/>
</clipPath>
</defs>
</svg>
